{"title":"WWE-TNA-ROH CZW The Best of Brodie Lee in CZW WebRip x264 3vil","uid":10074039,"size":2049174183,"categoryP":"video","categoryS":"tv_shows","magnet":"?xt=urn:btih:21d2c7af645bc26476c5b2ef1dd6882ea9586020&amp;dn=WWE-TNA-ROH+CZW+The+Best+of+Brodie+Lee+in+CZW+WebRip+x264+3vil&amp;tr=udp%3A%2F%2Ftracker.openbittorrent.com%3A80&amp;tr=udp%3A%2F%2Fopen.demonii.com%3A1337&amp;tr=udp%3A%2F%2Ftracker.coppersurfer.tk%3A6969&amp;tr=udp%3A%2F%2Fexodus.desync.com%3A6969","seeders":1,"leechers":0,"uploader":"qtleewest","files":-1,"time":1398895327,"description":"The Best of Brodie Lee in CZW: \n\nBrodie Lee, now known as Luke Harper of the Wyatt Family in the WWE, \nwas a force to reckon with on the independent wrestling circuit.  \nAfter causing waves Brodie Lee eventually made his way to CZW and left \na trail of debris behind him.  Thanks to this new addition to our \nBest of CZW series you can now see every Brodie Lee match from the \nCombat Zone in full! \n\n\n- Brodie Lee &amp; Cheech vs. Jon Dahmer &amp; GQ \n- Brodie Lee &amp; Cheech vs. Olsen Twins (Jimmy &amp; Colin Olsen) \n  VS CS2 (J-Busta &amp; Dave Cole) \n- Brodie Lee &amp; Cheech vs. Team AnDrew (Andy Sumner &amp; Drew Gulak) \n- Miracle Ultraviolence Connection (Brodie Lee, Cheech, &amp; Cloudy) vs. \n  Team AnDrew &amp; Nate Hatred \n- Miracle Ultraviolence Connection vs. 2 Girls, 1 Cup \n  (Greg Excellent &amp; Beef Wellington) &amp; Player Uno \n- *HARDCORE WAR*: Brodie Lee vs. Greg Excellent \n- Miracle Ultraviolence Connection vs. Dunn and Marcos \n  (Kevin Dunn &amp; Kirby Marcos) &amp; Jimmy Olsen \n- *TABLES, LADDERS, &amp; CHAIRS MATCH*: Miracle Ultraviolence Connection vs. \n    2 Girls, 1 Cup \n- *CZW World Heavyweight Championship*: Brodie Lee vs. Jon Moxley \n\n\n*Video* \nID                                      : 2 \nFormat                                  : AVC \nFormat profile                          : &lt;a class=&quot;__cf_email__&quot; href=&quot;/cdn-cgi/l/email-protection&quot; data-cfemail=&quot;aceecddfc9c0c5c2c9ece09f829c&quot;&gt;[email&amp;#160;protected]&lt;/a&gt;&lt;script cf-hash='f9e31' type=&quot;text/javascript&quot;&gt;\n/* &lt;![CDATA[ */!function(){try{var t=&quot;currentScript&quot;in document?document.currentScript:function(){for(var t=document.getElementsByTagName(&quot;script&quot;),e=t.length;e--;)if(t[e].getAttribute(&quot;cf-hash&quot;))return t[e]}();if(t&amp;&amp;t.previousSibling){var e,r,n,i,c=t.previousSibling,a=c.getAttribute(&quot;data-cfemail&quot;);if(a){for(e=&quot;&quot;,r=parseInt(a.substr(0,2),16),n=2;a.length-n;n+=2)i=parseInt(a.substr(n,2),16)^r,e+=String.fromCharCode(i);e=document.createTextNode(e),c.parentNode.replaceChild(e,c)}}}catch(u){}}();/* ]]&gt; */&lt;/script&gt; \nFormat settings, CABAC                  : No \nFormat settings, ReFrames                : 1 frame \nMuxing mode                              : Container profile=&lt;a class=&quot;__cf_email__&quot; href=&quot;/cdn-cgi/l/email-protection&quot; data-cfemail=&quot;57153624323b3e393217637966&quot;&gt;[email&amp;#160;protected]&lt;/a&gt;&lt;script cf-hash='f9e31' type=&quot;text/javascript&quot;&gt;\n/* &lt;![CDATA[ */!function(){try{var t=&quot;currentScript&quot;in document?document.currentScript:function(){for(var t=document.getElementsByTagName(&quot;script&quot;),e=t.length;e--;)if(t[e].getAttribute(&quot;cf-hash&quot;))return t[e]}();if(t&amp;&amp;t.previousSibling){var e,r,n,i,c=t.previousSibling,a=c.getAttribute(&quot;data-cfemail&quot;);if(a){for(e=&quot;&quot;,r=parseInt(a.substr(0,2),16),n=2;a.length-n;n+=2)i=parseInt(a.substr(n,2),16)^r,e+=String.fromCharCode(i);e=document.createTextNode(e),c.parentNode.replaceChild(e,c)}}}catch(u){}}();/* ]]&gt; */&lt;/script&gt; \nCodec ID                                : avc1 \nCodec ID/Info                            : Advanced Video Coding \nDuration                                : 2h 8mn \nBit rate                                : 2 000 Kbps \nWidth                                    : 880 pixels \nHeight                                  : 496 pixels \nDisplay aspect ratio                    : 16:9 \nFrame rate mode                          : Constant \nFrame rate                              : 24.000 fps \nColor space                              : YUV \nChroma subsampling                      : 4:2:0 \nBit depth                                : 8 bits \nScan type                                : Progressive \nBits/(Pixel*Frame)                      : 0.191 \nStream size                              : 1.79 GiB (94%) \n\n*Audio* \nID                                      : 1 \nFormat                                  : AAC \nFormat profile                          : LC \nCodec ID                                : 40 \nDuration                                : 2h 8mn \nBit rate mode                            : Constant \nBit rate                                : 128 Kbps \nChannel(s)                              : 2 channels \nChannel positions                        : Front: L R \nSampling rate                            : 44.1 KHz \nCompression mode                        : Lossy \nStream size                              : 117 MiB (6%) \nLanguage                                : English \n\nSource: XWT","torrent":{"xt":"urn:btih:21d2c7af645bc26476c5b2ef1dd6882ea9586020","amp;dn":"WWE-TNA-ROH+CZW+The+Best+of+Brodie+Lee+in+CZW+WebRip+x264+3vil","amp;tr":["udp%3A%2F%2Ftracker.openbittorrent.com%3A80","udp%3A%2F%2Fopen.demonii.com%3A1337","udp%3A%2F%2Ftracker.coppersurfer.tk%3A6969","udp%3A%2F%2Fexodus.desync.com%3A6969"],"infoHash":"21d2c7af645bc26476c5b2ef1dd6882ea9586020","infoHashBuffer":{"type":"Buffer","data":[33,210,199,175,100,91,194,100,118,197,178,239,29,214,136,46,169,88,96,32]},"announce":[],"urlList":[]}}